<?xml version="1.0" encoding="utf-8"?>
<!-- Generator: Adobe Illustrator 27.5.0, SVG Export Plug-In . SVG Version: 6.00 Build 0)  -->
<svg version="1.1" xmlns="http://www.w3.org/2000/svg" xmlns:xlink="http://www.w3.org/1999/xlink" x="0px" y="0px"
	 viewBox="0 0 500 500" style="enable-background:new 0 0 500 500;" xml:space="preserve">
<g id="Background_Complete">
	<g>
		<g>
			<path style="fill:#F5F5F5;" d="M80.413,95.554c4.156-1.098,8.691-0.031,12.338,2.244c3.647,2.275,6.486,5.664,8.751,9.318
				c4.381,7.07,5.858,16.529,5.976,24.846c-9.226-0.461-17.043-7.79-20.775-11.758C80.804,113.935,73.951,99.02,80.413,95.554"/>
		</g>
		<g>
			<path style="fill:#F5F5F5;" d="M122.276,137.666c-3.767-2.978-5.413-8.206-4.575-12.934c0.838-4.729,3.935-8.892,7.922-11.569
				c1.843-1.238,4.122-2.212,6.246-1.565c1.986,0.604,3.354,2.554,3.738,4.594c0.384,2.04-0.072,4.15-0.769,6.106
				C132.444,129.002,128.898,135.051,122.276,137.666"/>
		</g>
		<g>
			<g>
				<path style="fill:#E0E0E0;" d="M127.644,157.777c-0.102,0.045-1.16-1.756-2.617-4.836c-0.729-1.542-1.393-3.513-1.841-5.721
					c-0.435-2.203-0.965-4.618-1.143-7.244c-0.407-5.234,0.633-10.016,2.08-13.127c0.711-1.567,1.489-2.726,2.049-3.498
					c0.597-0.749,0.961-1.13,1.009-1.092c0.137,0.098-1.202,1.742-2.451,4.847c-1.25,3.087-2.152,7.71-1.757,12.804
					c0.169,2.532,0.669,4.947,1.054,7.139c0.399,2.189,0.966,4.079,1.606,5.634C126.919,155.792,127.777,157.717,127.644,157.777z"
					/>
			</g>
		</g>
		<g>
			<g>
				<path style="fill:#E0E0E0;" d="M86.635,106.451c0.049-0.041,0.734,0.674,1.931,2.003c1.198,1.329,2.904,3.275,4.99,5.697
					c4.172,4.846,9.863,11.605,15.965,19.223c6.101,7.622,11.43,14.677,15.177,19.861c1.874,2.592,3.366,4.707,4.367,6.19
					c1.005,1.48,1.535,2.316,1.483,2.354c-0.052,0.038-0.682-0.727-1.776-2.141c-1.188-1.552-2.737-3.574-4.602-6.009
					c-3.879-5.079-9.282-12.059-15.376-19.672c-6.096-7.505-11.61-14.295-15.742-19.382c-1.93-2.385-3.533-4.366-4.762-5.886
					C87.178,107.287,86.586,106.492,86.635,106.451z"/>
			</g>
		</g>
		<g>
			<path style="fill:#F5F5F5;" d="M115.995,146.663c-8.309-5.786-19.497-7.188-28.977-3.634c-2.414,0.905-5.043,2.591-5.12,5.168
				c-0.077,2.581,2.463,4.426,4.847,5.418c9.922,4.126,22.273,1.473,29.625-6.363"/>
		</g>
		<g>
			<g>
				<path style="fill:#E0E0E0;" d="M93.472,146.948c-0.014-0.063,0.479-0.228,1.386-0.473c0.904-0.258,2.232-0.544,3.885-0.853
					c3.294-0.534,8.021-1.155,13.144-0.111c2.548,0.526,4.88,1.465,6.825,2.606c1.956,1.138,3.462,2.525,4.644,3.733
					c1.14,1.252,1.987,2.329,2.472,3.139c0.51,0.793,0.765,1.245,0.711,1.281c-0.152,0.109-1.291-1.642-3.651-3.956
					c-1.21-1.117-2.706-2.404-4.607-3.455c-1.891-1.055-4.127-1.929-6.582-2.436c-4.931-1.009-9.573-0.516-12.858-0.15
					C95.54,146.704,93.504,147.095,93.472,146.948z"/>
			</g>
		</g>
	</g>
	<g>
		<g>
			<g>
				<g>
					<path style="fill:#EBEBEB;" d="M129.531,349.666c29.819-14.477,41.445-48.308,45.361-79.758
						c0.654-5.249,2.104-10.663,0.35-15.64c-1.756-4.976-7.053-9.03-12.078-7.573c-4.168,1.208-6.576,5.45-9.339,8.835
						c-3.676,4.504-8.629,7.927-14.108,9.747c-3.6,1.196-7.881,1.597-10.876-0.736c-4.108-3.202-3.649-9.509-2.79-14.698
						c1.602-9.67,3.202-19.34,4.803-29.008c0.859-5.188,1.718-10.488,0.887-15.674c-0.831-5.186-3.671-10.333-8.391-12.503
						c-4.721-2.17-11.283-0.294-13.136,4.623c-0.771,2.046-0.689,4.311-1.177,6.443c-0.487,2.133-1.871,4.359-4.014,4.633
						c-2.17,0.279-4.013-1.524-5.324-3.291c-4.526-6.096-7.088-13.43-9.418-20.689c-2.33-7.259-4.535-14.661-8.489-21.154
						c-3.953-6.493-9.96-12.096-17.329-13.701c-7.372-1.605-16.026,1.725-19.067,8.727c-3.05,7.021,0.039,15.13,3.744,21.796
						c5.496,9.891,12.417,18.965,20.474,26.848c1.452,1.423,3.027,2.96,3.346,4.983c0.577,3.642-3.251,6.558-6.85,7.152
						c-4.076,0.673-8.213-0.397-12.338-0.565c-4.125-0.168-8.796,0.92-10.937,4.504c-2.972,4.969,0.582,11.24,4.37,15.579
						c7.585,8.69,16.656,16.044,26.689,21.643c3.598,2.006,7.423,3.872,10.076,7.046c2.653,3.176,3.77,8.138,1.327,11.5
						c-2.446,3.366-7.409,3.776-11.292,2.396c-3.882-1.378-7.119-4.121-10.703-6.167c-6.708-3.829-16.003-4.804-21.556,0.636
						c-3.65,3.576-4.813,9.18-4.062,14.254c0.749,5.075,3.169,9.728,5.83,14.088c9.303,15.24,22.226,28.375,37.869,36.751
						C97.027,349.07,112.12,353.065,129.531,349.666"/>
				</g>
			</g>
		</g>
		<g>
			<g>
				<g>
					<g>
						<path style="fill:#E0E0E0;" d="M125.303,351.333c0.839-12.572,1.398-6.05-0.726-22.562
							c-2.092-16.519-5.886-34.436-10.498-53.04c-1.17-4.646-2.327-9.238-3.466-13.762c-1.148-4.514-2.286-8.991-3.67-13.3
							c-2.731-8.634-6.014-16.726-9.371-24.31c-3.354-7.589-6.814-14.667-10.098-21.262c-3.299-6.591-6.49-12.676-9.634-18.098
							c-6.257-10.873-12.33-19.028-16.728-24.456c-2.193-2.723-3.964-4.779-5.183-6.157c-0.588-0.655-1.048-1.171-1.396-1.558
							c-0.319-0.346-0.488-0.519-0.5-0.508c-0.014,0.011,0.131,0.205,0.425,0.574c0.329,0.403,0.767,0.939,1.323,1.62
							c1.169,1.418,2.892,3.512,5.038,6.267c4.3,5.495,10.266,13.683,16.428,24.567c3.098,5.428,6.246,11.517,9.508,18.114
							c3.25,6.606,6.678,13.687,10.003,21.265c3.325,7.575,6.577,15.645,9.28,24.234c1.37,4.288,2.493,8.726,3.641,13.252
							c1.138,4.522,2.291,9.112,3.46,13.755c4.608,18.589,8.419,36.457,10.554,52.92c2.164,16.454,1.675,9.868,0.926,22.4"/>
					</g>
				</g>
			</g>
		</g>
		<g>
			<g>
				<g>
					<g>
						<path style="fill:#E0E0E0;" d="M106.676,248.588c0.063,0.02,0.365-0.74,0.86-2.135c0.502-1.392,1.16-3.428,1.936-5.957
							c1.557-5.054,3.469-12.107,5.548-19.89c2.08-7.788,4.087-14.793,5.716-19.809c0.808-2.51,1.482-4.536,1.966-5.93
							c0.476-1.398,0.711-2.183,0.649-2.208c-0.062-0.025-0.414,0.713-0.999,2.073c-0.593,1.355-1.368,3.352-2.26,5.843
							c-1.803,4.977-3.923,11.982-6.004,19.777c-2.032,7.686-3.869,14.64-5.273,19.953c-0.649,2.396-1.198,4.415-1.639,6.036
							C106.794,247.767,106.611,248.568,106.676,248.588z"/>
					</g>
				</g>
			</g>
		</g>
		<g>
			<g>
				<g>
					<g>
						<path style="fill:#E0E0E0;" d="M41.893,225.484c-0.012,0.066,0.92,0.327,2.613,0.743c1.689,0.425,4.136,1.027,7.135,1.868
							c6.01,1.633,14.234,4.18,23.183,7.387c8.947,3.224,16.919,6.486,22.617,9.012c2.86,1.243,5.146,2.311,6.731,3.04
							c1.582,0.735,2.472,1.113,2.504,1.054c0.031-0.061-0.802-0.554-2.336-1.396c-1.537-0.834-3.785-2.001-6.615-3.33
							c-5.641-2.695-13.601-6.069-22.574-9.305c-8.976-3.215-17.264-5.668-23.337-7.134c-3.031-0.757-5.51-1.259-7.229-1.57
							C42.863,225.553,41.907,225.416,41.893,225.484z"/>
					</g>
				</g>
			</g>
		</g>
		<g>
			<g>
				<g>
					<g>
						<path style="fill:#E0E0E0;" d="M123.952,327.412c0.028,0.018,0.229-0.237,0.588-0.741c0.413-0.604,0.916-1.341,1.526-2.234
							c1.316-1.945,3.148-4.811,5.365-8.38c4.439-7.136,10.26-17.187,16.533-28.364c6.277-11.181,11.997-21.272,16.28-28.491
							c2.094-3.507,3.818-6.392,5.098-8.536c0.55-0.932,1.003-1.7,1.374-2.331c0.305-0.538,0.452-0.829,0.424-0.849
							c-0.029-0.016-0.229,0.238-0.588,0.743c-0.413,0.604-0.916,1.339-1.526,2.232c-1.317,1.945-3.149,4.811-5.366,8.38
							c-4.439,7.136-10.259,17.187-16.535,28.368c-6.275,11.178-11.995,21.268-16.278,28.488c-2.095,3.505-3.818,6.392-5.098,8.534
							c-0.55,0.932-1.003,1.702-1.375,2.331C124.071,327.103,123.923,327.394,123.952,327.412z"/>
					</g>
				</g>
			</g>
		</g>
		<g>
			<g>
				<g>
					<g>
						<path style="fill:#E0E0E0;" d="M39.778,284.696c-0.014,0.031,0.27,0.203,0.823,0.503c0.657,0.343,1.463,0.763,2.44,1.274
							c2.257,1.151,5.304,2.703,9.011,4.591c7.608,3.879,18.054,9.356,29.589,15.424c11.538,6.071,22.045,11.457,29.736,15.179
							c3.845,1.862,6.97,3.337,9.151,4.312c1.009,0.444,1.842,0.81,2.518,1.109c0.58,0.243,0.893,0.356,0.907,0.325
							c0.014-0.031-0.27-0.203-0.823-0.505c-0.655-0.341-1.461-0.762-2.44-1.272c-2.257-1.151-5.303-2.702-9.01-4.591
							c-7.608-3.877-18.056-9.356-29.594-15.426c-11.535-6.069-22.041-11.455-29.731-15.176c-3.845-1.862-6.971-3.337-9.153-4.313
							c-1.01-0.444-1.84-0.811-2.518-1.108C40.104,284.778,39.793,284.666,39.778,284.696z"/>
					</g>
				</g>
			</g>
		</g>
	</g>
</g>
<g id="Background_Simple" style="display:none;">
	<path style="display:inline;fill:#EBEBEB;" d="M437.295,112.444L437.295,112.444c-17.041-27.729-45.567-46.728-77.863-50.763
		c-12.053-1.506-24.332-1.092-36.231,1.423c-36.525,7.72-68.306,34.995-81.479,69.925c-7.747,20.543-9.912,44.196-24.614,60.502
		c-19.134,21.222-51.619,21.888-80.179,21.009c-28.561-0.879-61.067-0.129-80.108,21.176
		c-11.925,13.343-15.715,32.318-14.753,50.188c2.546,47.31,35.93,89.611,78.387,110.638c42.457,21.026,92.445,22.909,138.912,13.66
		c65.094-12.957,126.998-48.541,164.207-103.501c35.582-52.557,45.749-123.328,20.536-181.29
		C442.16,120.929,439.854,116.609,437.295,112.444z"/>
</g>
<g id="Floor">
	<g>
		<g>
			<path style="fill:#263238;" d="M465.358,435.009c0,0.144-94.668,0.26-211.419,0.26c-116.792,0-211.439-0.117-211.439-0.26
				s94.647-0.26,211.439-0.26C370.691,434.748,465.358,434.865,465.358,435.009z"/>
		</g>
	</g>
</g>
<g id="Plant">
	<g>
		<g>
			<path style="fill:#E8505B;" d="M65.732,269.389c0,0,6.901-4.657,15.522,11.873c8.621,16.53,11.918,26.079,11.918,26.079
				s2.27,3.459,4.639,1.162c2.369-2.297,5.583-8.781,9.657-7.657c4.225,1.165,5.657,5.855,4.919,12.774
				c-0.739,6.918-1.801,22.135-1.892,23.512c-0.089,1.351,0.703,3.333,2.567,2.027c1.865-1.306,12.548-13.431,17.998-8.017
				c5.45,5.414,0.225,24.349-0.306,26.43c-0.531,2.081-0.117,2.964,0.874,3.468c0.991,0.505,4.198-3.91,7.378-7.234
				c3.18-3.324,7.45-6.621,10.332-3.234c2.883,3.387,3.928,17.548-9.341,40.69l-6.851,10.321l-12.429-0.573
				c-26.524-2.846-37.373-12.007-38.423-16.329c-1.049-4.322,4.127-5.843,8.685-6.465c4.558-0.622,10.014-0.627,10.187-1.725
				c0.173-1.098-0.298-1.952-2.294-2.744c-1.996-0.792-20.392-7.68-21.575-15.27c-1.183-7.591,14.905-9.12,17.058-9.862
				s1.013-2.547-0.133-3.268c-1.167-0.734-14.109-8.809-20.143-12.273c-6.034-3.464-8.99-7.377-7.452-11.481
				c1.482-3.958,8.618-2.752,11.868-3.321c3.25-0.569,1.783-4.438,1.783-4.438s-5.794-8.275-14.113-24.959
				s-0.287-19.569-0.287-19.569"/>
		</g>
		<g>
			<g>
				<path style="fill:#263238;" d="M73.478,284.179c0.007-0.004,0.066,0.096,0.174,0.293c0.116,0.22,0.271,0.512,0.467,0.882
					c0.414,0.806,1.002,1.951,1.752,3.414c1.523,2.996,3.704,7.287,6.395,12.579c5.452,10.622,12.963,25.256,21.259,41.419
					c8.337,16.164,15.815,30.832,21.139,41.494c2.633,5.322,4.768,9.636,6.259,12.648c0.716,1.48,1.277,2.638,1.671,3.454
					c0.178,0.379,0.318,0.678,0.424,0.904c0.093,0.205,0.137,0.311,0.13,0.315c-0.007,0.004-0.066-0.096-0.174-0.293
					c-0.116-0.22-0.271-0.512-0.466-0.882c-0.414-0.805-1.001-1.951-1.752-3.413c-1.523-2.996-3.704-7.287-6.395-12.579
					c-5.401-10.621-12.926-25.263-21.263-41.426c-8.333-16.158-15.812-30.825-21.135-41.487c-2.633-5.322-4.768-9.637-6.259-12.649
					c-0.716-1.48-1.277-2.639-1.672-3.454c-0.178-0.379-0.318-0.678-0.424-0.904C73.515,284.29,73.471,284.183,73.478,284.179z"/>
			</g>
		</g>
		<g>
			<g>
				<path style="fill:#263238;" d="M103.338,310.097c0.067,0.019-0.218,1.259-0.684,3.261c-0.487,2.13-1.106,4.836-1.791,7.829
					c-0.694,3.06-1.343,5.829-1.874,7.819c-0.267,0.995-0.501,1.795-0.679,2.344c-0.182,0.548-0.297,0.845-0.329,0.836
					c-0.067-0.02,0.235-1.254,0.678-3.26c0.472-2.134,1.072-4.845,1.736-7.845c0.695-3.061,1.379-5.822,1.93-7.806
					c0.277-0.991,0.511-1.791,0.691-2.339C103.193,310.387,103.306,310.088,103.338,310.097z"/>
			</g>
		</g>
		<g>
			<g>
				<path style="fill:#263238;" d="M96.845,332.416c-0.035,0.128-5.719-1.337-12.693-3.271c-6.976-1.935-12.601-3.606-12.565-3.734
					c0.035-0.128,5.718,1.337,12.694,3.271C91.255,330.616,96.881,332.288,96.845,332.416z"/>
			</g>
		</g>
		<g>
			<g>
				<path style="fill:#263238;" d="M112.891,360.236c0.002,0.033-0.321,0.079-0.907,0.135c-0.585,0.058-1.434,0.114-2.484,0.17
					c-2.1,0.102-5.007,0.172-8.215,0.077c-3.21-0.087-6.109-0.316-8.199-0.541c-1.046-0.11-1.889-0.22-2.471-0.309
					c-0.581-0.089-0.901-0.154-0.897-0.187c0.007-0.069,1.304,0.019,3.397,0.157c2.093,0.138,4.986,0.312,8.184,0.399
					c3.197,0.094,6.094,0.079,8.192,0.063C111.588,360.181,112.888,360.166,112.891,360.236z"/>
			</g>
		</g>
		<g>
			<g>
				<path style="fill:#263238;" d="M123.207,341.342c0.058,0.033-0.478,1.108-1.392,2.82c-0.913,1.712-2.204,4.061-3.656,6.641
					c-1.452,2.581-2.79,4.904-3.78,6.573c-0.989,1.67-1.63,2.686-1.688,2.653s0.478-1.108,1.392-2.82
					c0.913-1.712,2.205-4.061,3.657-6.642c1.452-2.58,2.789-4.903,3.779-6.572C122.509,342.326,123.149,341.309,123.207,341.342z"/>
			</g>
		</g>
		<g>
			<g>
				<path style="fill:#263238;" d="M140.493,364.103c0.029,0.016-0.136,0.366-0.458,0.983c-0.38,0.701-0.848,1.567-1.402,2.591
					c-1.202,2.177-2.892,5.168-4.785,8.457c-1.893,3.29-3.629,6.254-4.907,8.388c-0.606,0.994-1.119,1.834-1.535,2.514
					c-0.372,0.588-0.591,0.906-0.619,0.889c-0.029-0.017,0.136-0.366,0.458-0.983c0.379-0.701,0.848-1.567,1.402-2.591
					c1.202-2.177,2.892-5.168,4.785-8.458c1.892-3.289,3.629-6.253,4.906-8.387c0.606-0.994,1.12-1.834,1.535-2.515
					C140.245,364.404,140.464,364.086,140.493,364.103z"/>
			</g>
		</g>
		<g>
			<g>
				<path style="fill:#263238;" d="M126.954,387.263c0,0.033-0.411,0.066-1.157,0.097c-0.745,0.033-1.824,0.054-3.157,0.064
					c-2.666,0.014-6.351-0.042-10.413-0.271c-4.064-0.223-7.734-0.57-10.381-0.883c-1.324-0.154-2.393-0.299-3.13-0.412
					c-0.737-0.113-1.143-0.192-1.139-0.225c0.004-0.033,0.417-0.017,1.16,0.039c0.84,0.07,1.892,0.157,3.143,0.26
					c2.653,0.226,6.318,0.519,10.374,0.741c4.054,0.229,7.729,0.337,10.39,0.411c1.255,0.035,2.31,0.065,3.153,0.088
					C126.542,387.199,126.954,387.23,126.954,387.263z"/>
			</g>
		</g>
	</g>
</g>
<g id="Character">
	<g>
		<g>
			<g>
				<path style="fill:#E8505B;" d="M452.117,263.895l-33.465,32.582l-30.839,58.857l-34.686,66.549l-42.611-19.974l-46.058-23.584
					l29.461-56.278l18.309-63.02c-12.935,8.583-36.948,20.272-65.697,14.176c-31.142-6.603-16.193-124.051-16.193-124.051
					l34.22-0.881l3.41,82.811l38.686-17.082l0.06,0.14c2.328-1.039,4.364-1.964,5.446-2.554
					c21.391-11.668,35.431-13.082,58.379-4.891h0l33.112,10.998C412.159,221.708,443.53,237.153,452.117,263.895"/>
			</g>
			<g>
				<g>
					<g>
						<path style="fill:#263238;" d="M334.982,204.241c0.025,0.045-0.776,0.439-2.075,1.366c-1.298,0.923-3.058,2.453-4.794,4.716
							c-1.741,2.256-3.4,5.251-4.725,8.786c-1.352,3.527-2.393,7.562-3.527,11.788c-2.291,8.419-4.364,16.038-5.885,21.628
							c-0.764,2.714-1.389,4.932-1.841,6.539c-0.216,0.727-0.39,1.314-0.526,1.771c-0.126,0.403-0.2,0.613-0.218,0.608
							c-0.017-0.005,0.023-0.223,0.116-0.635c0.111-0.464,0.255-1.059,0.432-1.796c0.413-1.617,0.983-3.85,1.681-6.582
							c1.483-5.601,3.504-13.233,5.738-21.668c1.133-4.222,2.191-8.273,3.582-11.825c1.362-3.559,3.08-6.582,4.883-8.84
							c1.798-2.266,3.622-3.775,4.969-4.656c0.67-0.448,1.22-0.75,1.599-0.938C334.771,204.315,334.974,204.225,334.982,204.241z"/>
					</g>
				</g>
				<g style="opacity:0.3;">
					<g>
						<path d="M322.51,220.832c-9.568,25.903-26.776,40.39-51.148,53.37c0,0,20.894-1.452,40.185-14.726"/>
					</g>
				</g>
			</g>
			<g style="opacity:0.3;">
				<g>
					<path d="M352.986,202.393c4.056,64.917,8.112,129.834,12.169,194.751l-12.027,24.739L352.986,202.393z"/>
				</g>
			</g>
			<g>
				<g>
					<path style="fill:#FAFAFA;" d="M390.682,269.745c-0.142,0.052-1.366-3.012-3.072-6.7c-1.698-3.692-3.234-6.612-3.103-6.686
						c0.061-0.034,0.524,0.654,1.191,1.815c0.667,1.16,1.528,2.798,2.385,4.653c0.855,1.855,1.542,3.573,1.992,4.834
						C390.525,268.921,390.748,269.721,390.682,269.745z"/>
				</g>
			</g>
			<g>
				<g>
					<path style="fill:#FAFAFA;" d="M417.922,256.053c0.076,0.122-2.835,2.074-6.501,4.359c-3.667,2.286-6.701,4.039-6.777,3.917
						c-0.076-0.122,2.834-2.073,6.501-4.359C414.812,257.685,417.846,255.931,417.922,256.053z"/>
				</g>
			</g>
			<g>
				<g>
					<path style="fill:#FAFAFA;" d="M406.101,246.194c-0.144,0.008-0.385-2.374-0.539-5.318c-0.154-2.945-0.162-5.338-0.019-5.346
						c0.144-0.007,0.385,2.373,0.539,5.318C406.236,243.793,406.244,246.186,406.101,246.194z"/>
				</g>
			</g>
			<g>
				<g>
					<path style="fill:#FAFAFA;" d="M433.295,244.29c-0.076,0.122-2.273-1.097-4.907-2.724c-2.635-1.627-4.71-3.045-4.634-3.168
						c0.076-0.122,2.272,1.097,4.908,2.725C431.295,242.749,433.37,244.167,433.295,244.29z"/>
				</g>
			</g>
			<g>
				<g>
					<path style="fill:#FAFAFA;" d="M391.721,298.225c-0.132-0.057,1.078-3.154,2.702-6.916c1.625-3.763,3.048-6.767,3.18-6.71
						c0.132,0.057-1.077,3.153-2.702,6.917C393.277,295.278,391.853,298.282,391.721,298.225z"/>
				</g>
			</g>
			<g>
				<g>
					<path style="fill:#FAFAFA;" d="M379.612,310.49c-0.129,0.064-1.222-1.862-2.443-4.303c-1.221-2.442-2.106-4.472-1.977-4.537
						c0.129-0.064,1.222,1.862,2.443,4.304C378.856,308.394,379.741,310.425,379.612,310.49z"/>
				</g>
			</g>
			<g>
				<g>
					<path style="fill:#FAFAFA;" d="M389.737,326.989c0.04,0.13-2.225,0.907-5.139,1.313c-2.914,0.416-5.305,0.295-5.302,0.159
						c-0.002-0.152,2.357-0.264,5.229-0.675C387.399,327.387,389.697,326.843,389.737,326.989z"/>
				</g>
			</g>
			<g>
				<g>
					<path style="fill:#FAFAFA;" d="M402.735,308.943c-0.133-0.056,0.661-2.23,1.772-4.854c1.111-2.625,2.119-4.708,2.252-4.651
						c0.132,0.056-0.661,2.229-1.772,4.854C403.875,306.917,402.867,308.999,402.735,308.943z"/>
				</g>
			</g>
			<g>
				<g>
					<path style="fill:#FAFAFA;" d="M371.139,347.078c-0.126,0.085-1.596-1.948-3.618-4.275c-2.014-2.335-3.815-4.08-3.714-4.193
						c0.088-0.103,2.067,1.488,4.107,3.852C369.962,344.819,371.254,347.005,371.139,347.078z"/>
				</g>
			</g>
			<g>
				<g>
					<path style="fill:#FAFAFA;" d="M365.412,306.074c0.124,0.072-1.046,2.322-2.615,5.025c-1.569,2.703-2.941,4.836-3.066,4.764
						c-0.124-0.072,1.046-2.322,2.615-5.025C363.915,308.134,365.287,306.001,365.412,306.074z"/>
				</g>
			</g>
			<g>
				<g>
					<path style="fill:#FAFAFA;" d="M369.488,291.945c-0.036,0.139-2.538-0.386-5.589-1.174c-3.051-0.788-5.495-1.539-5.459-1.678
						c0.036-0.139,2.538,0.386,5.589,1.174C367.08,291.055,369.524,291.806,369.488,291.945z"/>
				</g>
			</g>
			<g>
				<g>
					<path style="fill:#FAFAFA;" d="M369.254,262.973c0.127-0.076,1.378,1.798,2.96,4.075c1.579,2.281,2.896,4.108,2.781,4.2
						c-0.109,0.088-1.618-1.606-3.209-3.904C370.192,265.051,369.133,263.044,369.254,262.973z"/>
				</g>
			</g>
			<g>
				<g>
					<path style="fill:#FAFAFA;" d="M360.038,261.554c0.094,0.109-1.455,1.61-3.46,3.353c-2.006,1.744-3.707,3.069-3.802,2.961
						c-0.094-0.109,1.454-1.61,3.46-3.354C358.242,262.772,359.944,261.446,360.038,261.554z"/>
				</g>
			</g>
			<g>
				<g>
					<path style="fill:#FAFAFA;" d="M367.314,246.384c-0.088,0.102-2.318-1.743-4.621-4.457c-2.312-2.707-3.778-5.203-3.663-5.273
						c0.128-0.085,1.772,2.259,4.06,4.936C365.367,244.274,367.418,246.271,367.314,246.384z"/>
				</g>
			</g>
			<g>
				<g>
					<path style="fill:#FAFAFA;" d="M392.887,241.712c0.042,0.138-2.469,1.026-5.607,1.984c-3.139,0.959-5.717,1.624-5.759,1.486
						c-0.042-0.137,2.468-1.026,5.607-1.985C390.266,242.24,392.845,241.574,392.887,241.712z"/>
				</g>
			</g>
			<g>
				<g>
					<path style="fill:#FAFAFA;" d="M356.881,217.355c-0.155-0.009-0.086-2.295-0.441-5.075c-0.34-2.783-0.97-4.981-0.822-5.028
						c0.124-0.048,0.991,2.121,1.339,4.963C357.319,215.055,357.013,217.371,356.881,217.355z"/>
				</g>
			</g>
			<g>
				<g>
					<path style="fill:#FAFAFA;" d="M334.124,289.863c0.04,0.065-0.881,0.7-2.356,1.737c-1.476,1.036-3.496,2.491-5.661,4.186
						c-2.163,1.697-4.059,3.312-5.418,4.497c-1.36,1.185-2.196,1.927-2.249,1.873c-0.047-0.048,0.699-0.885,2-2.144
						c1.301-1.26,3.17-2.928,5.346-4.636c2.177-1.705,4.244-3.121,5.778-4.083C333.098,290.331,334.089,289.806,334.124,289.863z"/>
				</g>
			</g>
			<g>
				<g>
					<path style="fill:#FAFAFA;" d="M332.81,281.835c-0.131,0.079-1.814-2.54-4.138-5.585c-2.315-3.053-4.39-5.374-4.279-5.479
						c0.05-0.047,0.636,0.474,1.506,1.391c0.871,0.916,2.018,2.237,3.187,3.773c1.168,1.536,2.134,2.994,2.785,4.078
						C332.523,281.096,332.869,281.799,332.81,281.835z"/>
				</g>
			</g>
			<g>
				<g>
					<path style="fill:#FAFAFA;" d="M338.905,250.23c0.069,0.126-2.069,1.44-4.776,2.934c-2.708,1.495-4.958,2.605-5.028,2.479
						c-0.069-0.126,2.068-1.44,4.776-2.935C336.584,251.214,338.835,250.104,338.905,250.23z"/>
				</g>
			</g>
			<g>
				<g>
					<path style="fill:#FAFAFA;" d="M332.873,236.431c-0.044,0.05-0.717-0.445-1.714-1.35c-0.997-0.905-2.307-2.235-3.613-3.826
						c-1.305-1.593-2.353-3.137-3.045-4.292c-0.693-1.156-1.047-1.911-0.989-1.945c0.136-0.081,1.845,2.763,4.437,5.907
						C330.523,234.08,332.978,236.313,332.873,236.431z"/>
				</g>
			</g>
			<g>
				<g>
					<path style="fill:#FAFAFA;" d="M343.254,236.14c-0.129-0.063,0.695-2.022,1.84-4.375c1.146-2.354,2.179-4.21,2.309-4.147
						c0.129,0.063-0.694,2.021-1.84,4.375C344.417,234.347,343.383,236.203,343.254,236.14z"/>
				</g>
			</g>
			<g>
				<g>
					<path style="fill:#FAFAFA;" d="M340.483,220.346c-0.162-0.007,0.019-3.108-0.58-6.857c-0.573-3.754-1.691-6.651-1.539-6.708
						c0.061-0.025,0.419,0.669,0.849,1.855c0.43,1.184,0.906,2.868,1.205,4.772c0.296,1.904,0.357,3.653,0.308,4.912
						C340.678,219.58,340.548,220.35,340.483,220.346z"/>
				</g>
			</g>
			<g>
				<g>
					<path style="fill:#FAFAFA;" d="M343.045,300.038c-0.076-0.007-0.023-1.125,0.039-2.927c0.063-1.802,0.114-4.292,0.047-7.039
						c-0.07-2.749-0.245-5.232-0.398-7.029c-0.152-1.797-0.26-2.91-0.184-2.921c0.066-0.01,0.304,1.086,0.55,2.881
						c0.247,1.794,0.482,4.29,0.552,7.057c0.068,2.765-0.042,5.27-0.2,7.074C343.295,298.938,343.112,300.045,343.045,300.038z"/>
				</g>
			</g>
			<g>
				<g>
					<path style="fill:#FAFAFA;" d="M341.525,324.885c-0.122,0.109-1.778-1.89-4.44-3.569c-2.646-1.706-5.156-2.365-5.108-2.521
						c0.009-0.125,2.654,0.322,5.388,2.082C340.114,322.614,341.635,324.824,341.525,324.885z"/>
				</g>
			</g>
			<g>
				<g>
					<path style="fill:#FAFAFA;" d="M354.04,340.292c0.066,0.128-3.009,1.85-6.867,3.847c-3.86,1.997-7.041,3.513-7.108,3.385
						c-0.066-0.128,3.008-1.85,6.868-3.847C350.792,341.68,353.974,340.164,354.04,340.292z"/>
				</g>
			</g>
			<g>
				<g>
					<path style="fill:#FAFAFA;" d="M318.819,347.122c-0.116,0.085-2.38-2.796-5.057-6.435c-2.678-3.64-4.754-6.66-4.638-6.745
						c0.116-0.085,2.38,2.796,5.058,6.436C316.858,344.017,318.935,347.037,318.819,347.122z"/>
				</g>
			</g>
			<g>
				<g>
					<path style="fill:#FAFAFA;" d="M307.946,318.685c-0.07,0.002-0.164-0.781-0.222-2.052c-0.058-1.271-0.07-3.03,0.019-4.97
						c0.09-1.94,0.265-3.691,0.44-4.952c0.175-1.261,0.341-2.032,0.41-2.023c0.149,0.019-0.156,3.14-0.33,6.999
						C308.08,315.543,308.096,318.679,307.946,318.685z"/>
				</g>
			</g>
			<g>
				<g>
					<path style="fill:#FAFAFA;" d="M296.219,367.227c-0.092,0.111-2.708-1.913-5.842-4.519c-3.135-2.607-5.601-4.809-5.509-4.92
						c0.092-0.111,2.707,1.912,5.842,4.519C293.844,364.914,296.311,367.117,296.219,367.227z"/>
				</g>
			</g>
			<g>
				<g>
					<path style="fill:#FAFAFA;" d="M303.258,365.737c-0.144,0.003-0.342-3.505-0.443-7.836c-0.101-4.332-0.066-7.846,0.078-7.849
						c0.144-0.003,0.342,3.505,0.443,7.837C303.436,362.22,303.401,365.734,303.258,365.737z"/>
				</g>
			</g>
			<g>
				<g>
					<path style="fill:#FAFAFA;" d="M317.162,395.852c-0.034,0.078-1.248-0.417-3.257-1.058c-2.007-0.644-4.831-1.383-8.014-1.822
						c-3.186-0.431-6.104-0.477-8.211-0.395c-2.107,0.079-3.409,0.23-3.421,0.146c-0.005-0.036,0.315-0.109,0.901-0.212
						c0.585-0.108,1.439-0.215,2.499-0.302c2.119-0.177,5.077-0.19,8.302,0.247c3.223,0.444,6.07,1.25,8.063,1.989
						c0.998,0.368,1.792,0.7,2.327,0.961C316.887,395.662,317.176,395.819,317.162,395.852z"/>
				</g>
			</g>
			<g>
				<g>
					<path style="fill:#FAFAFA;" d="M328.614,401.346c0.04-0.053,0.918,0.518,2.252,1.559c1.334,1.039,3.111,2.564,4.939,4.39
						c1.826,1.828,3.351,3.606,4.391,4.94c1.04,1.334,1.612,2.212,1.559,2.252c-0.061,0.047-0.735-0.75-1.842-2.017
						c-1.107-1.267-2.663-2.992-4.475-4.806c-1.814-1.812-3.538-3.368-4.806-4.475C329.364,402.081,328.567,401.407,328.614,401.346
						z"/>
				</g>
			</g>
			<g>
				<g>
					<path style="fill:#FAFAFA;" d="M333.599,349.248c-0.134,0.053-1.294-2.558-2.591-5.831c-1.298-3.274-2.241-5.971-2.107-6.024
						c0.134-0.053,1.294,2.557,2.591,5.832C332.789,346.498,333.733,349.195,333.599,349.248z"/>
				</g>
			</g>
			<g>
				<g>
					<path style="fill:#FAFAFA;" d="M293.431,247.898c0.047,0.047-0.512,0.709-1.53,1.668c-1.016,0.96-2.508,2.199-4.285,3.385
						c-1.78,1.184-3.497,2.085-4.774,2.654c-1.277,0.57-2.103,0.831-2.128,0.77c-0.065-0.148,3.104-1.504,6.613-3.858
						C290.848,250.186,293.32,247.781,293.431,247.898z"/>
				</g>
			</g>
			<g>
				<g>
					<path style="fill:#FAFAFA;" d="M295.986,237.302c-0.144-0.007-0.166-2.005-0.049-4.463c0.116-2.459,0.327-4.446,0.471-4.439
						c0.144,0.007,0.166,2.005,0.049,4.463C296.341,235.321,296.13,237.309,295.986,237.302z"/>
				</g>
			</g>
			<g>
				<g>
					<path style="fill:#FAFAFA;" d="M276.052,246.203c-0.06,0.131-2.386-0.807-5.195-2.094c-2.81-1.288-5.038-2.438-4.978-2.568
						c0.06-0.131,2.386,0.807,5.195,2.095C273.883,244.922,276.112,246.072,276.052,246.203z"/>
				</g>
			</g>
			<g>
				<g>
					<path style="fill:#FAFAFA;" d="M311.645,232.637c-0.143-0.011-0.071-2.487,0.162-5.53c0.233-3.044,0.538-5.502,0.681-5.491
						c0.143,0.011,0.071,2.487-0.162,5.531C312.093,230.19,311.788,232.648,311.645,232.637z"/>
				</g>
			</g>
			<g>
				<g>
					<path style="fill:#FAFAFA;" d="M265.455,267.397c-0.038,0.125-2.741-0.705-5.709-2.495c-2.977-1.777-4.981-3.771-4.888-3.863
						c0.103-0.119,2.229,1.671,5.156,3.417C262.931,266.216,265.511,267.251,265.455,267.397z"/>
				</g>
			</g>
			<g>
				<g>
					<path style="fill:#FAFAFA;" d="M250.618,247.051c0.106,0.097-1.801,2.358-4.258,5.05c-2.459,2.693-4.537,4.796-4.643,4.699
						c-0.106-0.097,1.8-2.358,4.259-5.051C248.433,249.058,250.512,246.954,250.618,247.051z"/>
				</g>
			</g>
			<g>
				<g>
					<path style="fill:#FAFAFA;" d="M249.347,228.823c-0.053,0.122-2.287-0.824-4.662-2.614c-2.384-1.779-3.917-3.659-3.816-3.744
						c0.113-0.106,1.789,1.583,4.128,3.327C247.326,227.549,249.417,228.685,249.347,228.823z"/>
				</g>
			</g>
			<g>
				<g>
					<path style="fill:#FAFAFA;" d="M240.021,232.638c0.11,0.093-0.845,1.402-2.132,2.923c-1.288,1.522-2.421,2.68-2.53,2.587
						c-0.11-0.093,0.845-1.402,2.133-2.924C238.779,233.704,239.911,232.546,240.021,232.638z"/>
				</g>
			</g>
			<g>
				<g>
					<path style="fill:#FAFAFA;" d="M260.032,198.799c0.111,0.091-1.638,2.412-3.907,5.184c-2.27,2.773-4.199,4.946-4.311,4.855
						c-0.111-0.091,1.638-2.412,3.908-5.185C257.991,200.882,259.921,198.708,260.032,198.799z"/>
				</g>
			</g>
			<g>
				<g>
					<path style="fill:#FAFAFA;" d="M242.867,202.649c-0.108,0.095-2.013-1.904-4.253-4.465c-2.241-2.561-3.97-4.713-3.861-4.808
						c0.108-0.095,2.012,1.904,4.253,4.465C241.246,200.402,242.975,202.554,242.867,202.649z"/>
				</g>
			</g>
			<g>
				<g>
					<path style="fill:#FAFAFA;" d="M251.448,180.934c-0.125,0.071-1.46-2.055-2.98-4.747c-1.521-2.693-2.653-4.933-2.527-5.004
						c0.125-0.071,1.459,2.055,2.981,4.748C250.442,178.623,251.573,180.863,251.448,180.934z"/>
				</g>
			</g>
			<g>
				<g>
					<path style="fill:#FAFAFA;" d="M251.025,166.922c-0.126-0.098,1.37-1.995,2.561-4.687c1.213-2.683,1.629-5.062,1.786-5.034
						c0.128,0.005-0.064,2.484-1.311,5.246C252.834,165.217,251.114,167.014,251.025,166.922z"/>
				</g>
			</g>
			<g>
				<g>
					<path style="fill:#FAFAFA;" d="M234.508,166.088c-0.121,0.029-0.259-2.911,1.231-6.12c0.731-1.59,1.67-2.882,2.443-3.719
						c0.773-0.841,1.347-1.256,1.389-1.21c0.124,0.113-1.956,2.036-3.358,5.146C234.773,163.276,234.675,166.108,234.508,166.088z"
						/>
				</g>
			</g>
		</g>
		<g>
			<g>
				<path style="fill:#263238;" d="M378.691,142.297c-0.324-4.156-0.648-8.344-0.151-12.482c0.497-4.138,1.878-8.274,4.602-11.429
					c2.724-3.155,6.928-5.191,11.062-4.655c2.553,0.331,4.974,1.592,7.547,1.516c2.977-0.087,5.567-1.925,8.277-3.162
					c4.232-1.932,9.1-2.44,13.64-1.423c2.383,0.534,4.735,1.518,6.452,3.255c1.717,1.737,2.699,4.32,2.091,6.686
					c3.005,0,6.052,0.006,8.955,0.785c2.903,0.78,5.694,2.438,7.191,5.045s1.387,6.234-0.748,8.349
					c2.779-0.564,5.694,1.578,6.357,4.335c0.663,2.757-0.707,5.771-2.998,7.442c-2.291,1.671-6.561,2.411-9.346,1.88
					c-2.785-0.531-5.97-1.312-8.229-3.025"/>
			</g>
			<g>
				<g>
					<g>
						<g>
							<g>
								<g>
									<g>
										<g>
											<g>
												<g>
													<path style="fill:#B78876;" d="M376.517,236.497L376.517,236.497c11.485,2.952,23.206-3.915,26.235-15.381
														c1.691-6.404,3.066-11.772,3.066-11.772s16.715,2.862,22.242-12.954c5.527-15.817,15.016-53.211,15.016-53.211l0,0
														c-15.733-14.073-37.85-18.529-57.805-11.646l-2.962,1.022l-21.231,77.326
														C357.885,221.508,364.839,233.496,376.517,236.497z"/>
												</g>
											</g>
										</g>
									</g>
								</g>
								<g>
									<g>
										<g>
											<g>
												<g>
													<path style="fill:#AA6550;" d="M405.921,209.124c0,0-10.312-2.553-18.731-12.835c0,0,1.058,13.073,17.386,16.962
														L405.921,209.124z"/>
												</g>
											</g>
										</g>
									</g>
								</g>
							</g>
						</g>
					</g>
					<g>
						<g>
							<g>
								<g>
									<g>
										<g>
											<path style="fill:#B78876;" d="M378.743,149.663c-0.231-0.208-9.829-6.891-13.127,4.084
												c-3.298,10.975,8.401,12.022,8.514,11.713C374.244,165.151,378.743,149.663,378.743,149.663z"/>
										</g>
									</g>
								</g>
							</g>
						</g>
						<g>
							<g>
								<g>
									<g>
										<g>
											<g>
												<path style="fill:#AA6550;" d="M372.027,160.295c-0.038-0.05-0.232,0.076-0.599,0.128
													c-0.358,0.049-0.93-0.014-1.438-0.4c-1.032-0.774-1.455-2.908-0.913-4.902c0.272-1.007,0.767-1.896,1.358-2.577
													c0.576-0.702,1.264-1.107,1.879-1.035c0.621,0.04,0.929,0.514,0.971,0.863c0.055,0.351-0.081,0.549-0.028,0.585
													c0.022,0.037,0.291-0.113,0.339-0.592c0.02-0.232-0.031-0.529-0.225-0.818c-0.199-0.293-0.553-0.519-0.973-0.597
													c-0.864-0.196-1.859,0.354-2.508,1.102c-0.697,0.737-1.276,1.729-1.582,2.86c-0.594,2.232-0.084,4.642,1.365,5.577
													c0.711,0.433,1.426,0.394,1.836,0.235C371.928,160.554,372.059,160.326,372.027,160.295z"/>
											</g>
										</g>
									</g>
								</g>
							</g>
						</g>
					</g>
					<g>
						<g>
							<g>
								<g>
									<g>
										<g>
											<g>
												<g>
													<g>
														<g>
															<g>
																<path style="fill:#263238;" d="M429.606,166.045c-0.359,1.212-1.682,1.907-2.955,1.554
																	c-1.27-0.352-2.011-1.618-1.652-2.83c0.36-1.212,1.683-1.908,2.954-1.557
																	C429.225,163.565,429.966,164.833,429.606,166.045z"/>
															</g>
														</g>
													</g>
												</g>
											</g>
											<g>
												<g>
													<g>
														<g>
															<g>
																<g>
																	<path style="fill:#263238;" d="M432.57,164.513c-0.38,0.201-1.672-1.647-4.115-2.46
																		c-2.429-0.847-4.641-0.192-4.806-0.58c-0.086-0.176,0.38-0.614,1.351-0.92c0.958-0.308,2.452-0.418,3.97,0.099
																		c1.518,0.519,2.609,1.508,3.151,2.327C432.678,163.806,432.753,164.427,432.57,164.513z"/>
																</g>
															</g>
														</g>
													</g>
												</g>
											</g>
										</g>
										<g>
											<g>
												<g>
													<g>
														<g>
															<g>
																<path style="fill:#263238;" d="M405.614,157.992c-0.36,1.212-1.683,1.906-2.955,1.554
																	c-1.27-0.352-2.011-1.618-1.652-2.83c0.36-1.212,1.683-1.908,2.954-1.556
																	C405.234,155.512,405.974,156.78,405.614,157.992z"/>
															</g>
														</g>
													</g>
												</g>
											</g>
											<g>
												<g>
													<g>
														<g>
															<g>
																<g>
																	<path style="fill:#263238;" d="M408.426,156.915c-0.381,0.201-1.675-1.648-4.116-2.46
																		c-2.428-0.847-4.641-0.193-4.806-0.581c-0.085-0.176,0.377-0.614,1.351-0.919c0.957-0.308,2.451-0.418,3.969,0.098
																		c1.518,0.519,2.608,1.508,3.152,2.327C408.532,156.208,408.608,156.829,408.426,156.915z"/>
																</g>
															</g>
														</g>
													</g>
												</g>
											</g>
										</g>
										<g>
											<g>
												<g>
													<g>
														<g>
															<g>
																<path style="fill:#263238;" d="M411.208,177.989c0.035-0.143,1.64,0.105,4.204,0.616
																	c0.645,0.145,1.276,0.219,1.524-0.171c0.298-0.401,0.263-1.16,0.204-1.987c-0.08-1.705-0.162-3.492-0.25-5.365
																	c-0.292-7.616-0.279-13.794,0.028-13.803c0.307-0.009,0.792,6.157,1.083,13.773
																	c0.056,1.873,0.113,3.659,0.163,5.367c-0.002,0.787,0.134,1.727-0.498,2.555c-0.324,0.409-0.895,0.594-1.331,0.567
																	c-0.44-0.012-0.793-0.123-1.108-0.208C412.709,178.635,411.171,178.131,411.208,177.989z"/>
															</g>
														</g>
													</g>
												</g>
											</g>
										</g>
										<g>
											<g>
												<g>
													<g>
														<g>
															<g>
																<path style="fill:#263238;" d="M403.458,177.266c0.405,0.11-0.48,2.761,1.157,5.403
																	c1.63,2.646,4.554,3.297,4.451,3.674c-0.019,0.179-0.802,0.304-2.004-0.064c-1.183-0.352-2.764-1.301-3.766-2.917
																	c-0.996-1.618-1.075-3.356-0.8-4.473C402.766,177.747,403.282,177.19,403.458,177.266z"/>
															</g>
														</g>
													</g>
												</g>
											</g>
										</g>
									</g>
								</g>
							</g>
							<g>
								<g>
									<g>
										<g>
											<g>
												<path style="fill:#263238;" d="M433.115,159.916c-0.616,0.41-2.104-0.73-4.117-1.435
													c-1.988-0.776-3.859-0.881-4.058-1.593c-0.078-0.339,0.378-0.804,1.302-1.078c0.912-0.276,2.289-0.289,3.664,0.219
													c1.374,0.51,2.41,1.417,2.923,2.221C433.352,159.059,433.395,159.709,433.115,159.916z"/>
											</g>
										</g>
									</g>
								</g>
							</g>
						</g>
					</g>
				</g>
			</g>
			<g>
				<g>
					<path style="fill:#263238;" d="M408.213,147.026c-0.374,0.206-0.959-0.124-1.717-0.556c-0.759-0.442-1.732-0.979-2.879-1.413
						c-1.152-0.422-2.239-0.652-3.103-0.815c-0.856-0.169-1.514-0.302-1.663-0.703c-0.142-0.368,0.328-0.988,1.412-1.4
						c1.067-0.415,2.743-0.505,4.398,0.111c1.654,0.617,2.863,1.781,3.398,2.794C408.612,146.065,408.561,146.84,408.213,147.026z"
						/>
				</g>
			</g>
			<g>
				<path style="fill:#263238;" d="M442.227,148.321c0,0-11.831,0.007-22.773-8.954c-7.181-5.88-16.172-9.997-18.623-8.841
					c-2.45,1.156-4.784,9.4-13.359,10.016c0,0-3.062,16.046-9.281,14.037s3.345-25.766,3.345-25.766l17.25-4.059l17.673,0.645
					l15.876,3.603l13.73,7.887L442.227,148.321z"/>
			</g>
		</g>
		<g>
			<g>
				<g>
					<rect x="128.605" y="85.373" style="fill:#FAFAFA;" width="224.528" height="349.635"/>
				</g>
				<g>
					<g>
						<path style="fill:#263238;" d="M353.133,435.009c-0.001-2.153-0.099-144.145-0.24-349.635l0.24,0.24
							c-68.921,0.006-144.817,0.013-224.501,0.021h-0.027l0.26-0.26c-0.021,132.272-0.04,254.082-0.054,349.635l-0.206-0.206
							C265.747,434.928,351.457,435.007,353.133,435.009c-1.675,0.002-87.386,0.08-224.528,0.206l-0.206,0v-0.206
							c-0.015-95.554-0.034-217.364-0.054-349.635v-0.26h0.26h0.027c79.684,0.007,155.579,0.014,224.501,0.021h0.24l0,0.24
							C353.232,290.863,353.135,432.857,353.133,435.009z"/>
					</g>
				</g>
			</g>
			<g>
				<g>
					<g>
						<g>
							<g>
								<path style="fill:#E8505B;" d="M188.778,163.23h-28.729c-1.985,0-3.594-1.609-3.594-3.595v-39.764
									c0-1.985,1.609-3.595,3.594-3.595h18.22l14.104,14.536v28.822C192.373,161.62,190.763,163.23,188.778,163.23z"/>
							</g>
						</g>
					</g>
					<g>
						<g>
							<g>
								<path style="fill:#E8505B;" d="M178.269,116.276v11.191c0,1.846,1.497,3.343,3.343,3.343l10.761,0.002L178.269,116.276z"/>
							</g>
						</g>
					</g>
					<g style="opacity:0.2;">
						<g>
							<g>
								<path d="M178.416,128.45c0,0-0.142,2.714,2.948,3.607c0.116,0.034,0.235,0.059,0.354,0.08
									c1.405,0.251,10.654,1.896,10.654,1.684c0-0.23,0-3.007,0-3.007h-10.761C181.612,130.813,178.925,130.721,178.416,128.45z"
									/>
							</g>
						</g>
					</g>
					<g style="opacity:0.3;">
						<g>
							<g>
								<path style="fill:#FFFFFF;" d="M178.269,116.276v11.191c0,1.846,1.497,3.343,3.343,3.343l10.761,0.002L178.269,116.276z"/>
							</g>
						</g>
					</g>
				</g>
				<g>
					<g>
						<path style="fill:#FAFAFA;" d="M175.86,127.011c0,0.144-2.975,0.26-6.645,0.26c-3.671,0-6.646-0.117-6.646-0.26
							s2.975-0.26,6.646-0.26C172.885,126.751,175.86,126.867,175.86,127.011z"/>
					</g>
				</g>
				<g>
					<g>
						<path style="fill:#FAFAFA;" d="M184.444,133.338c0,0.144-4.897,0.26-10.937,0.26c-6.042,0-10.938-0.117-10.938-0.26
							s4.896-0.26,10.938-0.26C179.547,133.078,184.444,133.195,184.444,133.338z"/>
					</g>
				</g>
				<g>
					<g>
						<path style="fill:#FAFAFA;" d="M186.414,138.622c0,0.144-5.338,0.26-11.922,0.26c-6.586,0-11.923-0.117-11.923-0.26
							c0-0.144,5.337-0.26,11.923-0.26C181.076,138.362,186.414,138.478,186.414,138.622z"/>
					</g>
				</g>
				<g>
					<g>
						<path style="fill:#FAFAFA;" d="M186.414,143.607c0,0.144-5.338,0.26-11.922,0.26c-6.586,0-11.923-0.117-11.923-0.26
							c0-0.144,5.337-0.26,11.923-0.26C181.076,143.347,186.414,143.463,186.414,143.607z"/>
					</g>
				</g>
				<g>
					<g>
						<path style="fill:#FAFAFA;" d="M186.414,148.592c0,0.144-5.338,0.26-11.922,0.26c-6.586,0-11.923-0.117-11.923-0.26
							c0-0.144,5.337-0.26,11.923-0.26C181.076,148.332,186.414,148.448,186.414,148.592z"/>
					</g>
				</g>
				<g>
					<g>
						<path style="fill:#FAFAFA;" d="M186.414,153.577c0,0.144-5.338,0.26-11.922,0.26c-6.586,0-11.923-0.117-11.923-0.26
							s5.337-0.26,11.923-0.26C181.076,153.317,186.414,153.433,186.414,153.577z"/>
					</g>
				</g>
			</g>
			<g>
				<path style="fill:#263238;" d="M202.423,136.712h-3.029v-1.098h7.307v1.098h-3.029v7.735h-1.249V136.712z"/>
				<path style="fill:#263238;" d="M214.488,143.349v1.098h-6.41v-8.833h6.233v1.098h-4.972v2.713h4.429v1.073h-4.429v2.852H214.488
					z"/>
				<path style="fill:#263238;" d="M222.44,144.447l-1.905-2.713c-0.177,0.012-0.366,0.025-0.555,0.025h-2.183v2.688h-1.262v-8.833
					h3.445c2.297,0,3.685,1.161,3.685,3.079c0,1.363-0.707,2.347-1.943,2.789l2.095,2.965H222.44z M222.402,138.693
					c0-1.262-0.846-1.981-2.461-1.981h-2.145v3.975h2.145C221.557,140.687,222.402,139.955,222.402,138.693z"/>
				<path style="fill:#263238;" d="M233.9,144.447l-0.013-6.436l-3.192,5.363h-0.581l-3.192-5.325v6.398h-1.211v-8.833h1.035
					l3.684,6.209l3.634-6.209h1.035l0.013,8.833H233.9z"/>
				<path style="fill:#263238;" d="M236.957,143.438l0.467-0.984c0.656,0.593,1.779,1.022,2.915,1.022
					c1.527,0,2.183-0.593,2.183-1.363c0-2.158-5.351-0.795-5.351-4.076c0-1.363,1.06-2.523,3.382-2.523
					c1.035,0,2.107,0.277,2.839,0.782l-0.417,1.009c-0.77-0.492-1.641-0.719-2.423-0.719c-1.501,0-2.145,0.631-2.145,1.401
					c0,2.158,5.35,0.808,5.35,4.051c0,1.35-1.085,2.511-3.419,2.511C238.988,144.548,237.663,144.094,236.957,143.438z"/>
				<path style="fill:#263238;" d="M248.278,140.031c0-2.587,1.994-4.518,4.707-4.518c2.687,0,4.682,1.918,4.682,4.518
					c0,2.6-1.994,4.518-4.682,4.518C250.272,144.548,248.278,142.617,248.278,140.031z M256.405,140.031
					c0-1.956-1.464-3.395-3.42-3.395c-1.981,0-3.445,1.438-3.445,3.395c0,1.956,1.464,3.395,3.445,3.395
					C254.941,143.425,256.405,141.986,256.405,140.031z"/>
				<path style="fill:#263238;" d="M260.862,136.712v3.079h4.43v1.085h-4.43v3.571H259.6v-8.833h6.233v1.098H260.862z"/>
				<path style="fill:#263238;" d="M270.203,143.438l0.467-0.984c0.656,0.593,1.779,1.022,2.915,1.022
					c1.526,0,2.183-0.593,2.183-1.363c0-2.158-5.351-0.795-5.351-4.076c0-1.363,1.061-2.523,3.383-2.523
					c1.034,0,2.106,0.277,2.839,0.782l-0.416,1.009c-0.771-0.492-1.641-0.719-2.423-0.719c-1.502,0-2.146,0.631-2.146,1.401
					c0,2.158,5.351,0.808,5.351,4.051c0,1.35-1.086,2.511-3.42,2.511C272.234,144.548,270.909,144.094,270.203,143.438z"/>
				<path style="fill:#263238;" d="M285.258,143.349v1.098h-6.41v-8.833h6.233v1.098h-4.972v2.713h4.43v1.073h-4.43v2.852H285.258z"
					/>
				<path style="fill:#263238;" d="M293.211,144.447l-1.905-2.713c-0.177,0.012-0.366,0.025-0.556,0.025h-2.183v2.688h-1.262v-8.833
					h3.444c2.297,0,3.686,1.161,3.686,3.079c0,1.363-0.707,2.347-1.943,2.789l2.095,2.965H293.211z M293.172,138.693
					c0-1.262-0.845-1.981-2.46-1.981h-2.146v3.975h2.146C292.328,140.687,293.172,139.955,293.172,138.693z"/>
				<path style="fill:#263238;" d="M304.153,135.614l-3.874,8.833h-1.249l-3.887-8.833h1.363l3.18,7.256l3.205-7.256H304.153z"/>
				<path style="fill:#263238;" d="M305.278,135.614h1.262v8.833h-1.262V135.614z"/>
				<path style="fill:#263238;" d="M308.471,140.031c0-2.612,1.994-4.518,4.682-4.518c1.363,0,2.549,0.467,3.356,1.376l-0.819,0.795
					c-0.682-0.719-1.515-1.047-2.486-1.047c-1.994,0-3.471,1.438-3.471,3.395c0,1.956,1.477,3.395,3.471,3.395
					c0.972,0,1.805-0.341,2.486-1.06l0.819,0.795c-0.808,0.909-1.993,1.388-3.369,1.388
					C310.465,144.548,308.471,142.642,308.471,140.031z"/>
				<path style="fill:#263238;" d="M324.727,143.349v1.098h-6.41v-8.833h6.233v1.098h-4.972v2.713h4.43v1.073h-4.43v2.852H324.727z"
					/>
			</g>
			<g>
				<path style="fill:#E0E0E0;" d="M210.345,153.524l-2.353,7.039h-1.056l-1.92-5.621l-1.921,5.621h-1.076l-2.353-7.039h1.036
					l1.9,5.722l1.981-5.722h0.925l1.941,5.752l1.94-5.752H210.345z"/>
				<path style="fill:#E0E0E0;" d="M215.828,158.221h-4.324c0.121,0.935,0.875,1.559,1.931,1.559c0.624,0,1.146-0.211,1.539-0.643
					l0.533,0.623c-0.482,0.563-1.217,0.865-2.102,0.865c-1.719,0-2.866-1.137-2.866-2.725c0-1.579,1.136-2.715,2.675-2.715
					c1.539,0,2.634,1.107,2.634,2.745C215.848,158.009,215.838,158.13,215.828,158.221z M211.504,157.527h3.419
					c-0.101-0.895-0.774-1.529-1.709-1.529C212.289,155.998,211.605,156.621,211.504,157.527z"/>
				<path style="fill:#E0E0E0;" d="M217.188,153.102h0.965v7.461h-0.965V153.102z"/>
				<path style="fill:#E0E0E0;" d="M219.501,157.899c0-1.589,1.176-2.715,2.815-2.715c0.956,0,1.75,0.392,2.172,1.136l-0.734,0.473
					c-0.342-0.523-0.865-0.764-1.448-0.764c-1.046,0-1.83,0.734-1.83,1.871c0,1.156,0.784,1.88,1.83,1.88
					c0.583,0,1.106-0.242,1.448-0.764l0.734,0.462c-0.422,0.744-1.216,1.146-2.172,1.146
					C220.677,160.624,219.501,159.487,219.501,157.899z"/>
				<path style="fill:#E0E0E0;" d="M225.164,157.899c0-1.589,1.176-2.715,2.775-2.715c1.599,0,2.765,1.127,2.765,2.715
					c0,1.588-1.167,2.725-2.765,2.725C226.34,160.624,225.164,159.487,225.164,157.899z M229.729,157.899
					c0-1.136-0.764-1.871-1.79-1.871c-1.026,0-1.8,0.734-1.8,1.871c0,1.136,0.774,1.88,1.8,1.88
					C228.964,159.779,229.729,159.035,229.729,157.899z"/>
				<path style="fill:#E0E0E0;" d="M240.893,157.496v3.067h-0.965v-2.956c0-1.046-0.503-1.559-1.378-1.559
					c-0.965,0-1.599,0.614-1.599,1.77v2.745h-0.965v-2.956c0-1.046-0.503-1.559-1.378-1.559c-0.965,0-1.599,0.614-1.599,1.77v2.745
					h-0.965v-5.33h0.925v0.794c0.382-0.543,1.036-0.845,1.84-0.845c0.814,0,1.499,0.322,1.851,0.986
					c0.402-0.604,1.146-0.986,2.051-0.986C240.008,155.183,240.893,155.928,240.893,157.496z"/>
				<path style="fill:#E0E0E0;" d="M247.502,158.221h-4.324c0.121,0.935,0.875,1.559,1.931,1.559c0.624,0,1.147-0.211,1.539-0.643
					l0.533,0.623c-0.482,0.563-1.217,0.865-2.102,0.865c-1.719,0-2.866-1.137-2.866-2.725c0-1.579,1.136-2.715,2.675-2.715
					c1.539,0,2.635,1.107,2.635,2.745C247.522,158.009,247.512,158.13,247.502,158.221z M243.178,157.527h3.419
					c-0.101-0.895-0.774-1.529-1.71-1.529C243.962,155.998,243.278,156.621,243.178,157.527z"/>
				<path style="fill:#E0E0E0;" d="M248.64,159.98c0-0.362,0.281-0.644,0.664-0.644c0.372,0,0.644,0.281,0.644,0.644
					c0,0.352-0.271,0.643-0.644,0.643C248.921,160.624,248.64,160.332,248.64,159.98z M248.73,153.524h1.137l-0.19,4.817h-0.765
					L248.73,153.524z"/>
			</g>
			<g>
				<path style="fill:#E0E0E0;" d="M338.723,400.461h-1.177c-0.735,0-1.33-0.596-1.33-1.33V108.225c0-0.735,0.596-1.33,1.33-1.33
					h1.177c0.735,0,1.331,0.596,1.331,1.33V399.13C340.053,399.865,339.457,400.461,338.723,400.461z"/>
			</g>
			<g>
				<path style="fill:#E8505B;" d="M338.723,258.241h-1.177c-0.735,0-1.33-0.596-1.33-1.331V108.225c0-0.735,0.596-1.33,1.33-1.33
					h1.177c0.735,0,1.331,0.596,1.331,1.33V256.91C340.053,257.645,339.457,258.241,338.723,258.241z"/>
			</g>
			<g>
				<path style="fill:#263238;" d="M163.748,194.521v7.039h-0.995v-6.164h-1.589v-0.875H163.748z"/>
				<path style="fill:#263238;" d="M165.268,200.927c0-0.402,0.312-0.684,0.684-0.684c0.362,0,0.664,0.282,0.664,0.684
					c0,0.402-0.302,0.694-0.664,0.694C165.58,201.621,165.268,201.329,165.268,200.927z"/>
				<path style="fill:#263238;" d="M172.248,195.396h-2.414v-0.875h5.822v0.875h-2.413v6.164h-0.996V195.396z"/>
				<path style="fill:#263238;" d="M180.857,199.218h-4.324c0.121,0.935,0.875,1.559,1.931,1.559c0.624,0,1.146-0.211,1.539-0.644
					l0.533,0.624c-0.482,0.563-1.217,0.865-2.102,0.865c-1.719,0-2.866-1.137-2.866-2.725c0-1.579,1.136-2.715,2.675-2.715
					c1.539,0,2.634,1.106,2.634,2.745C180.877,199.006,180.867,199.127,180.857,199.218z M176.533,198.524h3.419
					c-0.101-0.895-0.774-1.529-1.71-1.529C177.317,196.995,176.633,197.618,176.533,198.524z"/>
				<path style="fill:#263238;" d="M185.082,196.18v0.936c-0.081-0.01-0.151-0.01-0.221-0.01c-1.036,0-1.679,0.633-1.679,1.8v2.655
					h-0.965v-5.33h0.925v0.895C183.483,196.502,184.147,196.18,185.082,196.18z"/>
				<path style="fill:#263238;" d="M195.118,198.493v3.067h-0.965v-2.957c0-1.045-0.503-1.559-1.378-1.559
					c-0.965,0-1.599,0.614-1.599,1.77v2.745h-0.965v-2.957c0-1.045-0.503-1.559-1.378-1.559c-0.965,0-1.599,0.614-1.599,1.77v2.745
					h-0.965v-5.33h0.925v0.794c0.382-0.543,1.036-0.845,1.84-0.845c0.815,0,1.499,0.322,1.851,0.986
					c0.402-0.604,1.146-0.986,2.051-0.986C194.233,196.18,195.118,196.925,195.118,198.493z"/>
			</g>
			<g>
				<path style="fill:#263238;" d="M166.514,309.915v0.875h-5.058v-0.684l2.866-2.766c0.744-0.724,0.885-1.166,0.885-1.608
					c0-0.725-0.513-1.167-1.498-1.167c-0.754,0-1.368,0.241-1.8,0.765l-0.684-0.594c0.543-0.674,1.479-1.065,2.574-1.065
					c1.468,0,2.414,0.754,2.414,1.961c0,0.684-0.201,1.297-1.156,2.212l-2.152,2.071H166.514z"/>
				<path style="fill:#263238;" d="M167.42,310.157c0-0.402,0.312-0.684,0.684-0.684c0.362,0,0.664,0.281,0.664,0.684
					c0,0.402-0.302,0.694-0.664,0.694C167.732,310.851,167.42,310.559,167.42,310.157z"/>
				<path style="fill:#263238;" d="M173.002,303.751h1.006v6.164h3.811v0.875h-4.817V303.751z"/>
				<path style="fill:#263238;" d="M178.665,303.812c0-0.352,0.282-0.634,0.654-0.634c0.372,0,0.653,0.271,0.653,0.613
					c0,0.362-0.271,0.644-0.653,0.644C178.947,304.435,178.665,304.163,178.665,303.812z M178.836,305.461h0.965v5.329h-0.965
					V305.461z"/>
				<path style="fill:#263238;" d="M181.15,308.125c0-1.589,1.176-2.715,2.815-2.715c0.956,0,1.75,0.393,2.172,1.137l-0.734,0.473
					c-0.342-0.523-0.865-0.765-1.448-0.765c-1.046,0-1.83,0.734-1.83,1.87c0,1.156,0.784,1.881,1.83,1.881
					c0.583,0,1.106-0.241,1.448-0.765l0.734,0.463c-0.422,0.744-1.216,1.146-2.172,1.146
					C182.326,310.851,181.15,309.714,181.15,308.125z"/>
				<path style="fill:#263238;" d="M192.101,308.448h-4.324c0.121,0.935,0.875,1.559,1.931,1.559c0.624,0,1.146-0.211,1.539-0.644
					l0.533,0.623c-0.482,0.563-1.217,0.865-2.102,0.865c-1.719,0-2.866-1.137-2.866-2.726c0-1.578,1.136-2.715,2.675-2.715
					c1.538,0,2.634,1.106,2.634,2.745C192.121,308.237,192.111,308.357,192.101,308.448z M187.777,307.753h3.419
					c-0.101-0.895-0.774-1.528-1.709-1.528C188.562,306.225,187.878,306.849,187.777,307.753z"/>
				<path style="fill:#263238;" d="M198.519,307.723v3.067h-0.965v-2.956c0-1.046-0.523-1.559-1.438-1.559
					c-1.026,0-1.689,0.613-1.689,1.77v2.745h-0.965v-5.329h0.925v0.804c0.392-0.543,1.076-0.855,1.92-0.855
					C197.604,305.41,198.519,306.155,198.519,307.723z"/>
				<path style="fill:#263238;" d="M199.848,308.125c0-1.589,1.176-2.715,2.815-2.715c0.956,0,1.75,0.393,2.172,1.137l-0.734,0.473
					c-0.342-0.523-0.865-0.765-1.448-0.765c-1.046,0-1.83,0.734-1.83,1.87c0,1.156,0.784,1.881,1.83,1.881
					c0.583,0,1.106-0.241,1.448-0.765l0.734,0.463c-0.422,0.744-1.216,1.146-2.172,1.146
					C201.024,310.851,199.848,309.714,199.848,308.125z"/>
				<path style="fill:#263238;" d="M210.8,308.448h-4.324c0.121,0.935,0.875,1.559,1.931,1.559c0.624,0,1.146-0.211,1.538-0.644
					l0.533,0.623c-0.482,0.563-1.217,0.865-2.102,0.865c-1.719,0-2.866-1.137-2.866-2.726c0-1.578,1.136-2.715,2.675-2.715
					c1.539,0,2.634,1.106,2.634,2.745C210.82,308.237,210.81,308.357,210.8,308.448z M206.476,307.753h3.419
					c-0.101-0.895-0.774-1.528-1.709-1.528C207.26,306.225,206.577,306.849,206.476,307.753z"/>
			</g>
			<g>
				<g>
					<path style="fill:#263238;" d="M315.232,217.392c0,0.144-34.51,0.26-77.07,0.26c-42.575,0-77.078-0.117-77.078-0.26
						s34.503-0.26,77.078-0.26C280.722,217.131,315.232,217.248,315.232,217.392z"/>
				</g>
			</g>
			<g>
				<g>
					<path style="fill:#263238;" d="M315.232,229.057c0,0.144-34.51,0.26-77.07,0.26c-42.575,0-77.078-0.117-77.078-0.26
						c0-0.144,34.503-0.26,77.078-0.26C280.722,228.797,315.232,228.913,315.232,229.057z"/>
				</g>
			</g>
			<g>
				<g>
					<path style="fill:#263238;" d="M315.232,240.722c0,0.144-34.51,0.26-77.07,0.26c-42.575,0-77.078-0.117-77.078-0.26
						c0-0.144,34.503-0.26,77.078-0.26C280.722,240.462,315.232,240.579,315.232,240.722z"/>
				</g>
			</g>
			<g>
				<g>
					<path style="fill:#263238;" d="M315.232,252.388c0,0.144-34.51,0.26-77.07,0.26c-42.575,0-77.078-0.117-77.078-0.26
						s34.503-0.26,77.078-0.26C280.722,252.127,315.232,252.244,315.232,252.388z"/>
				</g>
			</g>
			<g>
				<g>
					<path style="fill:#263238;" d="M315.232,264.053c0,0.144-34.51,0.26-77.07,0.26c-42.575,0-77.078-0.117-77.078-0.26
						s34.503-0.26,77.078-0.26C280.722,263.793,315.232,263.909,315.232,264.053z"/>
				</g>
			</g>
			<g>
				<g>
					<path style="fill:#263238;" d="M315.232,275.718c0,0.144-34.51,0.26-77.07,0.26c-42.575,0-77.078-0.117-77.078-0.26
						s34.503-0.26,77.078-0.26C280.722,275.458,315.232,275.574,315.232,275.718z"/>
				</g>
			</g>
			<g>
				<g>
					<path style="fill:#263238;" d="M315.232,320.028c0,0.144-34.51,0.26-77.07,0.26c-42.575,0-77.078-0.117-77.078-0.26
						c0-0.144,34.503-0.26,77.078-0.26C280.722,319.767,315.232,319.884,315.232,320.028z"/>
				</g>
			</g>
			<g>
				<g>
					<path style="fill:#E0E0E0;" d="M315.232,330.004c0,0.144-34.51,0.26-77.07,0.26c-42.575,0-77.078-0.117-77.078-0.26
						s34.503-0.26,77.078-0.26C280.722,329.744,315.232,329.86,315.232,330.004z"/>
				</g>
			</g>
			<g>
				<g>
					<path style="fill:#EBEBEB;" d="M315.232,339.98c0,0.144-34.51,0.26-77.07,0.26c-42.575,0-77.078-0.117-77.078-0.26
						c0-0.144,34.503-0.26,77.078-0.26C280.722,339.72,315.232,339.836,315.232,339.98z"/>
				</g>
			</g>
			<g>
				<rect x="244.939" y="369.831" style="fill:#E8505B;" width="81.544" height="30.379"/>
			</g>
			<g>
				<path style="fill:#FFFFFF;" d="M272.101,386.591h-4.014l-0.83,1.888h-1.111l3.42-7.552h1.067l3.431,7.552h-1.133
					L272.101,386.591z M271.723,385.728l-1.629-3.7l-1.629,3.7H271.723z"/>
				<path style="fill:#FFFFFF;" d="M274.449,385.62c0-1.705,1.262-2.913,3.021-2.913c1.025,0,1.877,0.421,2.33,1.219l-0.787,0.507
					c-0.367-0.56-0.928-0.819-1.554-0.819c-1.122,0-1.963,0.787-1.963,2.007c0,1.24,0.841,2.017,1.963,2.017
					c0.626,0,1.187-0.259,1.554-0.819l0.787,0.496c-0.453,0.798-1.305,1.229-2.33,1.229
					C275.711,388.543,274.449,387.324,274.449,385.62z"/>
				<path style="fill:#FFFFFF;" d="M280.519,385.62c0-1.705,1.262-2.913,3.021-2.913c1.025,0,1.877,0.421,2.33,1.219l-0.787,0.507
					c-0.367-0.56-0.928-0.819-1.554-0.819c-1.122,0-1.963,0.787-1.963,2.007c0,1.24,0.841,2.017,1.963,2.017
					c0.626,0,1.187-0.259,1.554-0.819l0.787,0.496c-0.453,0.798-1.305,1.229-2.33,1.229
					C281.781,388.543,280.519,387.324,280.519,385.62z"/>
				<path style="fill:#FFFFFF;" d="M292.265,385.965h-4.64c0.13,1.003,0.94,1.672,2.071,1.672c0.669,0,1.23-0.227,1.651-0.69
					l0.571,0.669c-0.518,0.604-1.306,0.928-2.255,0.928c-1.845,0-3.074-1.219-3.074-2.923c0-1.694,1.219-2.913,2.869-2.913
					c1.651,0,2.827,1.187,2.827,2.945C292.287,385.739,292.276,385.868,292.265,385.965z M287.626,385.221h3.668
					c-0.107-0.96-0.83-1.64-1.834-1.64C288.467,383.581,287.734,384.25,287.626,385.221z"/>
				<path style="fill:#FFFFFF;" d="M299.64,385.62c0,1.758-1.219,2.923-2.892,2.923c-0.809,0-1.521-0.313-1.995-0.928v2.956h-1.036
					v-7.81h0.993v0.906c0.464-0.637,1.197-0.96,2.038-0.96C298.421,382.707,299.64,383.872,299.64,385.62z M298.593,385.62
					c0-1.209-0.83-2.007-1.931-2.007c-1.09,0-1.92,0.798-1.92,2.007c0,1.219,0.83,2.017,1.92,2.017
					C297.763,387.637,298.593,386.839,298.593,385.62z"/>
				<path style="fill:#FFFFFF;" d="M304.286,388.145c-0.313,0.27-0.787,0.398-1.251,0.398c-1.154,0-1.813-0.636-1.813-1.79v-3.14
					h-0.971v-0.852h0.971v-1.251h1.035v1.251h1.641v0.852h-1.641v3.096c0,0.615,0.324,0.96,0.896,0.96
					c0.303,0,0.594-0.097,0.809-0.27L304.286,388.145z"/>
			</g>
			<g>
				<g>
					<g>
						<path style="fill:#E8505B;" d="M157.268,400.455c-0.002,0.006-0.066-0.039-0.195-0.136c-0.144-0.11-0.335-0.257-0.587-0.45
							c-0.543-0.427-1.34-1.053-2.424-1.906l-0.095-0.075l0.114-0.044c9.839-3.773,41.933-15.811,81.478-30.557l0.138-0.051
							l0.115,0.092c0.996,0.801,2.077,1.67,3.164,2.545l0.097,0.078v0.124c0,2.668,0.001,5.514,0.001,8.387
							c-0.002,7.562-0.004,14.934-0.006,21.992l0,0.255l-0.255,0c-23.326-0.038-43.718-0.071-58.303-0.095
							c-7.257-0.032-13.067-0.057-17.087-0.075c-1.978-0.018-3.514-0.032-4.579-0.041c-0.505-0.009-0.894-0.016-1.18-0.021
							C157.399,400.47,157.268,400.455,157.268,400.455s0.141-0.015,0.411-0.022c0.289-0.005,0.684-0.012,1.195-0.021
							c1.07-0.01,2.615-0.023,4.604-0.041c4.025-0.018,9.844-0.043,17.111-0.075c14.565-0.024,34.93-0.057,58.224-0.095
							l-0.254,0.254c-0.002-7.058-0.004-14.43-0.006-21.992c0-2.873,0.001-5.718,0.001-8.387l0.097,0.202
							c-1.087-0.875-2.167-1.745-3.163-2.546l0.252,0.041c-39.554,14.722-71.701,26.617-81.61,30.202l0.019-0.118
							c1.059,0.872,1.837,1.513,2.367,1.949c0.245,0.207,0.431,0.363,0.571,0.481C157.21,400.394,157.27,400.449,157.268,400.455z"
							/>
					</g>
				</g>
				<g>
					<g>
						<rect x="154.104" y="367.53" style="fill:#FFFFFF;" width="81.544" height="30.379"/>
					</g>
					<g>
						<g>
							<path style="fill:#E8505B;" d="M235.649,397.909c0,0-0.012-0.191-0.018-0.547c-0.005-0.374-0.011-0.895-0.019-1.572
								c-0.01-1.394-0.025-3.419-0.044-6.026c-0.023-5.236-0.056-12.807-0.097-22.234l0.178,0.178
								c-20.222,0.02-49.288,0.05-81.539,0.083h-0.005l0.26-0.26c-0.004,10.604-0.007,20.863-0.01,30.379l-0.25-0.25
								c23.532,0.047,43.882,0.088,58.37,0.117c7.243,0.03,13.02,0.054,17.007,0.07c1.976,0.014,3.508,0.025,4.566,0.032
								c0.509,0.007,0.901,0.012,1.187,0.016C235.504,397.899,235.649,397.909,235.649,397.909s-0.124,0.011-0.382,0.016
								c-0.279,0.004-0.661,0.009-1.157,0.016c-1.047,0.008-2.561,0.018-4.514,0.032c-3.974,0.016-9.731,0.04-16.95,0.07
								c-14.531,0.029-34.94,0.07-58.541,0.117l-0.251,0.001v-0.251c-0.003-9.516-0.007-19.775-0.01-30.379l0-0.26h0.261h0.005
								c32.251,0.033,61.316,0.062,81.539,0.082l0.179,0l-0.001,0.178c-0.041,9.472-0.074,17.08-0.097,22.341
								c-0.019,2.59-0.034,4.602-0.044,5.987c-0.008,0.664-0.014,1.174-0.019,1.54C235.661,397.743,235.649,397.909,235.649,397.909
								z"/>
						</g>
					</g>
				</g>
				<g>
					<path style="fill:#E8505B;" d="M176.453,380.574h3.182c2.428,0,4.078,1.532,4.078,3.776c0,2.243-1.65,3.775-4.078,3.775h-3.182
						V380.574z M179.57,387.187c1.866,0,3.064-1.143,3.064-2.837c0-1.694-1.198-2.838-3.064-2.838h-2.039v5.675H179.57z"/>
					<path style="fill:#E8505B;" d="M190.354,385.612h-4.639c0.129,1.003,0.938,1.672,2.071,1.672c0.669,0,1.23-0.227,1.65-0.69
						l0.572,0.669c-0.518,0.604-1.305,0.928-2.254,0.928c-1.845,0-3.075-1.219-3.075-2.923c0-1.694,1.219-2.913,2.87-2.913
						c1.65,0,2.826,1.187,2.826,2.945C190.375,385.385,190.364,385.515,190.354,385.612z M185.715,384.867h3.668
						c-0.108-0.96-0.83-1.64-1.834-1.64C186.556,383.228,185.823,383.897,185.715,384.867z"/>
					<path style="fill:#E8505B;" d="M191.278,385.267c0-1.705,1.262-2.913,3.021-2.913c1.025,0,1.877,0.421,2.33,1.219l-0.787,0.507
						c-0.367-0.561-0.928-0.819-1.554-0.819c-1.122,0-1.963,0.787-1.963,2.007c0,1.24,0.841,2.017,1.963,2.017
						c0.626,0,1.187-0.259,1.554-0.819l0.787,0.496c-0.453,0.798-1.305,1.229-2.33,1.229
						C192.541,388.19,191.278,386.971,191.278,385.267z"/>
					<path style="fill:#E8505B;" d="M197.888,380.12h1.036v8.005h-1.036V380.12z"/>
					<path style="fill:#E8505B;" d="M200.713,380.638c0-0.377,0.302-0.679,0.701-0.679c0.399,0,0.701,0.291,0.701,0.657
						c0,0.389-0.291,0.691-0.701,0.691C201.015,381.307,200.713,381.016,200.713,380.638z M200.897,382.408h1.036v5.718h-1.036
						V382.408z"/>
					<path style="fill:#E8505B;" d="M209.331,384.835v3.29h-1.036v-3.172c0-1.122-0.561-1.672-1.543-1.672
						c-1.1,0-1.812,0.658-1.812,1.898v2.945h-1.036v-5.718h0.992v0.863c0.421-0.583,1.154-0.917,2.061-0.917
						C208.349,382.354,209.331,383.152,209.331,384.835z"/>
					<path style="fill:#E8505B;" d="M216.425,385.612h-4.639c0.129,1.003,0.938,1.672,2.071,1.672c0.669,0,1.23-0.227,1.65-0.69
						l0.572,0.669c-0.518,0.604-1.305,0.928-2.254,0.928c-1.845,0-3.075-1.219-3.075-2.923c0-1.694,1.219-2.913,2.87-2.913
						c1.65,0,2.826,1.187,2.826,2.945C216.447,385.385,216.436,385.515,216.425,385.612z M211.787,384.867h3.668
						c-0.108-0.96-0.831-1.64-1.834-1.64C212.628,383.228,211.895,383.897,211.787,384.867z"/>
				</g>
				<g>
					<g>
						<line style="fill:#FFFFFF;" x1="235.649" y1="397.414" x2="238.812" y2="400.455"/>
					</g>
					<g>
						<g>
							<path style="fill:#E8505B;" d="M238.812,400.455c-0.1,0.104-0.889-0.493-1.762-1.333c-0.874-0.84-1.501-1.605-1.401-1.708
								c0.1-0.104,0.889,0.493,1.762,1.333C238.285,399.586,238.912,400.351,238.812,400.455z"/>
						</g>
					</g>
				</g>
			</g>
		</g>
		<g>
			<g>
				<path style="fill:#B78876;" d="M355.297,392.862l11.642-5.605l-6.396-18.913l-14.061-3.258
					c-1.314-0.291-2.768-0.643-4.397-1.096c-1.901-0.528-3.7-1.385-5.323-2.505c-1.967-1.358-4.509-3.266-5.583-4.731
					c-1.328-1.811-4.151-1.136-4.144,0.874c0.009,2.009,3.545,7.085,9.851,10.671c6.306,3.585-4.841,5.323-8.889,6.028
					c-4.049,0.704-16.459,3.471-17.196,4.881c-1.08,2.067,0.985,3.646,5.01,2.848c4.074-0.807,16.285-2.346,16.609-0.202
					c0,0-0.014,0.02-0.039,0.059c-2.032,3.148-1.799,7.261,0.534,10.193c2.252,2.83,5.644,6.381,8.139,5.843
					C345.756,396.933,355.297,392.862,355.297,392.862z"/>
			</g>
			<g>
				<path style="fill:#E8505B;" d="M354.588,359.572l10.909,36.885l84.709-25.741c18.229-5.539,28.333-24.99,22.383-43.089
					l-20.771-64.623l-45.106,11.199l24.755,59.782L354.588,359.572z"/>
			</g>
			<g>
				<g>
					<path style="fill:#263238;" d="M452.117,370.072c0,0-0.136,0.056-0.409,0.146c-0.29,0.093-0.693,0.222-1.219,0.39
						c-1.094,0.34-2.682,0.833-4.738,1.472c-4.158,1.272-10.195,3.119-17.784,5.442c-15.23,4.62-36.685,11.129-61.659,18.704
						l-0.23,0.07l-0.077-0.228c-3.775-11.273-7.432-23.678-11.661-36.412l-0.082-0.247l0.247-0.082
						c0.673-0.224,1.401-0.466,2.131-0.709c28.24-9.378,54.262-18.018,74.766-24.827l-0.126,0.275
						c-5.965-14.505-10.853-26.388-14.257-34.663c-1.681-4.124-2.995-7.345-3.896-9.554c-0.436-1.087-0.771-1.922-1.004-2.504
						c-0.224-0.567-0.324-0.864-0.324-0.864s0.139,0.281,0.382,0.84c0.246,0.577,0.6,1.404,1.06,2.481
						c0.925,2.2,2.273,5.406,3.999,9.511c3.443,8.258,8.387,20.119,14.422,34.595l0.085,0.205l-0.211,0.07
						c-20.495,6.837-46.505,15.513-74.732,24.929c-0.73,0.243-1.458,0.485-2.131,0.709l0.165-0.329
						c4.232,12.748,7.88,25.154,11.637,36.42l-0.306-0.158c24.996-7.504,46.47-13.95,61.713-18.526
						c7.607-2.264,13.659-4.064,17.826-5.305c2.066-0.605,3.662-1.073,4.761-1.395c0.53-0.151,0.938-0.266,1.231-0.35
						C451.972,370.101,452.117,370.072,452.117,370.072z"/>
				</g>
			</g>
			<g>
				<g>
					<path style="fill:#263238;" d="M447.133,344.748c-0.079,0.046-0.645-0.933-1.777-2.34c-1.127-1.408-2.891-3.198-5.181-4.723
						c-2.297-1.517-4.632-2.447-6.367-2.938c-1.737-0.496-2.858-0.636-2.847-0.727c0.004-0.036,0.287-0.03,0.798,0.013
						c0.512,0.034,1.247,0.152,2.142,0.358c1.789,0.407,4.21,1.305,6.562,2.86c2.346,1.562,4.115,3.443,5.186,4.933
						c0.538,0.744,0.933,1.375,1.163,1.834C447.049,344.472,447.164,344.73,447.133,344.748z"/>
				</g>
			</g>
			<g>
				<g>
					<path style="fill:#FAFAFA;" d="M426.598,277.341c-0.144,0-0.26-2.45-0.26-5.472c0-3.023,0.116-5.472,0.26-5.472
						c0.144,0,0.26,2.449,0.26,5.472C426.858,274.891,426.741,277.341,426.598,277.341z"/>
				</g>
			</g>
			<g>
				<g>
					<path style="fill:#FAFAFA;" d="M443.612,278.214c-0.138,0.041-0.962-2.306-1.84-5.243c-0.878-2.937-1.479-5.351-1.341-5.392
						c0.138-0.041,0.961,2.306,1.84,5.243C443.149,275.758,443.749,278.173,443.612,278.214z"/>
				</g>
			</g>
			<g>
				<g>
					<path style="fill:#FAFAFA;" d="M433.058,293.561c-0.005,0.133-2.369,0.058-5.147-0.764c-2.783-0.809-4.811-2.024-4.744-2.138
						c0.069-0.139,2.165,0.847,4.891,1.639C430.778,293.104,433.074,293.407,433.058,293.561z"/>
				</g>
			</g>
			<g>
				<g>
					<path style="fill:#FAFAFA;" d="M452.297,302.015c-0.142-0.025,0.145-2.365,0.639-5.226c0.495-2.862,1.011-5.162,1.153-5.138
						c0.142,0.025-0.145,2.364-0.639,5.227C452.955,299.739,452.439,302.039,452.297,302.015z"/>
				</g>
			</g>
			<g>
				<g>
					<path style="fill:#FAFAFA;" d="M445.415,315.777c-0.131,0.06-1.242-2.09-2.482-4.802c-1.24-2.713-2.139-4.959-2.008-5.019
						c0.131-0.06,1.242,2.09,2.482,4.803C444.647,313.47,445.546,315.717,445.415,315.777z"/>
				</g>
			</g>
			<g>
				<g>
					<path style="fill:#FAFAFA;" d="M442.596,327.844c-0.063,0.129-2.187-0.771-4.744-2.01c-2.558-1.24-4.58-2.35-4.517-2.479
						c0.063-0.129,2.186,0.771,4.744,2.01C440.636,326.605,442.658,327.715,442.596,327.844z"/>
				</g>
			</g>
			<g>
				<g>
					<path style="fill:#FAFAFA;" d="M464.235,324.634c0.131,0.071-0.832,2.072-1.903,4.585c-1.078,2.511-1.86,4.59-2.002,4.544
						c-0.132-0.041,0.434-2.211,1.523-4.749C462.936,326.476,464.115,324.567,464.235,324.634z"/>
				</g>
			</g>
			<g>
				<g>
					<path style="fill:#FAFAFA;" d="M458.216,353.676c-0.143,0.014-0.507-2.488-0.813-5.587c-0.306-3.1-0.438-5.625-0.295-5.639
						c0.143-0.014,0.507,2.487,0.813,5.588C458.227,351.137,458.359,353.662,458.216,353.676z"/>
				</g>
			</g>
			<g>
				<g>
					<path style="fill:#FAFAFA;" d="M442.942,362.852c-0.097,0.106-1.878-1.372-3.978-3.301c-2.1-1.93-3.723-3.579-3.626-3.685
						s1.878,1.372,3.978,3.302C441.416,361.096,443.039,362.746,442.942,362.852z"/>
				</g>
			</g>
			<g>
				<g>
					<path style="fill:#FAFAFA;" d="M416.538,365.484c0.116,0.085-1.255,2.15-3.061,4.612c-1.807,2.462-3.365,4.389-3.481,4.304
						c-0.116-0.085,1.254-2.149,3.061-4.612C414.863,367.326,416.422,365.399,416.538,365.484z"/>
				</g>
			</g>
			<g>
				<g>
					<path style="fill:#FAFAFA;" d="M424.914,353.106c-0.086,0.106-2.025-1.359-4.054-3.551c-2.037-2.187-3.354-4.229-3.242-4.306
						c0.122-0.089,1.612,1.792,3.623,3.952C423.245,351.366,425.012,352.991,424.914,353.106z"/>
				</g>
			</g>
			<g>
				<g>
					<path style="fill:#FAFAFA;" d="M404.992,355.919c0.039,0.126-1.736,0.662-3.985,0.491c-2.251-0.156-3.929-0.944-3.872-1.063
						c0.051-0.147,1.748,0.396,3.91,0.543C403.205,356.057,404.962,355.766,404.992,355.919z"/>
				</g>
			</g>
			<g>
				<g>
					<path style="fill:#FAFAFA;" d="M392.388,377.795c-0.142,0.024-0.59-1.9-1.002-4.298c-0.411-2.398-0.63-4.362-0.488-4.386
						c0.142-0.024,0.59,1.9,1.002,4.298C392.311,375.807,392.53,377.771,392.388,377.795z"/>
				</g>
			</g>
			<g>
				<g>
					<path style="fill:#FAFAFA;" d="M377.512,385.343c-0.077,0.122-2.335-1.166-5.044-2.876c-2.709-1.71-4.843-3.195-4.766-3.316
						c0.077-0.121,2.335,1.166,5.044,2.876C375.455,383.736,377.589,385.221,377.512,385.343z"/>
				</g>
			</g>
			<g>
				<g>
					<path style="fill:#FAFAFA;" d="M382.822,358.718c0.111,0.102-1.34,1.82-2.957,4.061c-1.625,2.236-2.805,4.15-2.936,4.077
						c-0.121-0.064,0.868-2.116,2.514-4.382C381.083,360.203,382.724,358.623,382.822,358.718z"/>
				</g>
			</g>
			<g>
				<g>
					<path style="fill:#FAFAFA;" d="M371.317,363.769c-0.064,0.129-1.373-0.395-2.922-1.17c-1.55-0.775-2.754-1.507-2.69-1.636
						s1.373,0.395,2.923,1.17C370.177,362.908,371.382,363.641,371.317,363.769z"/>
				</g>
			</g>
			<g style="opacity:0.2;">
				<g>
					<path d="M430.757,332.469c4.526,0.466,9.053,0.932,13.567,1.501c1.563,0.197,3.149,0.413,4.595,1.04s2.758,1.728,3.285,3.213
						c0.527,1.485,0.084,3.358-1.255,4.189c-1.219,0.756-2.84,0.506-4.101-0.177c-1.261-0.683-2.273-1.736-3.376-2.652
						c-2.024-1.681-4.408-2.927-6.943-3.63c-1.134-0.314-2.324-0.533-3.317-1.165c-0.992-0.633-1.749-1.83-1.439-2.965"/>
				</g>
			</g>
		</g>
	</g>
</g>
</svg>
